<svg version="1.1" xmlns="http://www.w3.org/2000/svg" xmlns:xlink="http://www.w3.org/1999/xlink">
<symbol id="DoubleChevronLeft" viewBox="0 0 32 32">
	<path d="M7.7,16L17,6.6C17.6,6,17.6,5,17,4.4c-0.6-0.6-1.5-0.6-2.1,0L4.5,14.9c-0.6,0.6-0.6,1.6,0,2.1l10.4,10.5 c0.6,0.6,1.5,0.6,2.1,0c0.6-0.6,0.6-1.6,0-2.1L7.7,16z"/>
	<path d="M18.2,16l9.3-9.4c0.6-0.6,0.6-1.6,0-2.1c-0.6-0.6-1.5-0.6-2.1,0L15,14.9c-0.6,0.6-0.6,1.6,0,2.1l10.3,10.5 c0.6,0.6,1.5,0.6,2.1,0c0.6-0.6,0.6-1.6,0-2.1L18.2,16z"/>
</symbol>
<symbol id="DoubleChevronRight" viewBox="0 0 32 32">
	<path d="M27.5,14.9L17.1,4.4c-0.6-0.6-1.5-0.6-2.1,0C14.4,5,14.4,6,15,6.6l9.3,9.4L15,25.4c-0.6,0.6-0.6,1.6,0,2.1 c0.6,0.6,1.5,0.6,2.1,0l10.3-10.5C28.1,16.5,28.1,15.5,27.5,14.9z"/>
	<path d="M17,14.9L6.6,4.4c-0.6-0.6-1.5-0.6-2.1,0C3.9,5,3.9,6,4.5,6.6l9.3,9.4l-9.3,9.4c-0.6,0.6-0.6,1.6,0,2.1 c0.6,0.6,1.5,0.6,2.1,0L17,17.1C17.6,16.5,17.6,15.5,17,14.9z"/>
</symbol>
<symbol id="ChevronLeft" viewBox="0 0 32 32">
	<path d="M23.9,7.6L15.5,16l8.4,8.4c0.2,0.2,0.3,0.4,0.3,0.7c0,0.2-0.1,0.5-0.3,0.7l-2.6,2.6c-0.2,0.2-0.4,0.3-0.7,0.3
	c-0.2,0-0.5-0.1-0.7-0.3L8.1,16.7c-0.2-0.2-0.3-0.4-0.3-0.7c0-0.3,0.1-0.5,0.3-0.7L19.8,3.6c0.2-0.2,0.5-0.3,0.7-0.3
	c0.2,0,0.5,0.1,0.7,0.3l2.6,2.6c0.2,0.2,0.3,0.4,0.3,0.7C24.2,7.2,24.1,7.4,23.9,7.6z"/>
</symbol>
<symbol id="ChevronRight" viewBox="0 0 32 32">
	<path d="M23.9,16.7L12.1,28.5c-0.2,0.2-0.4,0.3-0.7,0.3s-0.5-0.1-0.7-0.3l-2.6-2.6c-0.2-0.2-0.3-0.4-0.3-0.7c0-0.3,0.1-0.5,0.3-0.7
	l8.4-8.4L8.1,7.6C7.9,7.4,7.8,7.1,7.8,6.9c0-0.3,0.1-0.5,0.3-0.7l2.6-2.6c0.2-0.2,0.4-0.3,0.7-0.3s0.5,0.1,0.7,0.3l11.8,11.8
	c0.2,0.2,0.3,0.4,0.3,0.7C24.2,16.4,24.1,16.5,23.9,16.7z"/>
</symbol>
<symbol id="ChevronRightThin" viewBox="0 0 24 32">
	<path d="M18.2,15.2L7.4,4.4C7,3.9,6.2,3.9,5.8,4.4S5.3,5.6,5.8,6l10,10l-10,10c-0.5,0.5-0.5,1.2,0,1.7
	s1.2,0.5,1.7,0l10.8-10.8C18.7,16.4,18.7,15.6,18.2,15.2z"/>
</symbol>
<symbol id="ExpandMore" viewBox="0 0 32 32">
	<path d="M24.285,11.284L16,19.571l-8.285-8.288c-0.395-0.395-1.034-0.395-1.429,0  c-0.394,0.395-0.394,1.035,0,1.43l8.999,9.002l0,0l0,0c0.394,0.395,1.034,0.395,1.428,0l8.999-9.002  c0.394-0.395,0.394-1.036,0-1.431C25.319,10.889,24.679,10.889,24.285,11.284z"/>
</symbol>
<symbol id="Error" viewBox="0 0 32 32">
	<g fill="#E44061">
		<path d="M16,32C7.2,32,0,24.8,0,16C0,7.2,7.2,0,16,0c8.8,0,16,7.2,16,16C32,24.8,24.8,32,16,32z M16,2.8 C8.7,2.8,2.8,8.7,2.8,16S8.7,29.2,16,29.2S29.2,23.3,29.2,16S23.3,2.8,16,2.8z"/>
		<polygon points="18.7,16 24.9,9.8 22.2,7.1 16,13.3 9.8,7.1 7.1,9.8 13.3,16 7.1,22.2 9.8,24.9 16,18.7 22.2,24.9 24.9,22.2"/>
	</g>
</symbol>
<symbol id="Success" viewBox="0 0 32 32">
	<g fill="#41AD49">
		<path d="M16,32C7.2,32,0,24.8,0,16C0,7.2,7.2,0,16,0c8.8,0,16,7.2,16,16C32,24.8,24.8,32,16,32z M16,2.8 C8.7,2.8,2.8,8.7,2.8,16S8.7,29.2,16,29.2S29.2,23.3,29.2,16S23.3,2.8,16,2.8z"/>
		<polygon points="23.2,8.2 12,19.4 7.8,15.2 4.5,18.5 12,26 13,25 13,25 26.5,11.5 "/>
	</g>
</symbol>
<symbol id="UpChevron" viewBox="0 0 455 455">
	<circle cx="227.5" cy="227.5" r="227.5"/><polygon fill="#FFFFFF" points="334.41 276.77 227.5 170.21 120.59 276.77 99.41 255.52 227.5 127.85 355.59 255.53 334.41 276.77"/>
</symbol>
</svg>