<?xml version="1.0" standalone="no"?>
<!DOCTYPE svg PUBLIC "-//W3C//DTD SVG 20010904//EN"
 "http://www.w3.org/TR/2001/REC-SVG-20010904/DTD/svg10.dtd">
<svg version="1.0" xmlns="http://www.w3.org/2000/svg"
 width="260.000000pt" height="260.000000pt" viewBox="0 0 260.000000 260.000000"
 preserveAspectRatio="xMidYMid meet">
<metadata>
Created by potrace 1.11, written by Peter Selinger 2001-2013
</metadata>
<g transform="translate(0.000000,260.000000) scale(0.100000,-0.100000)"
fill="#000000" stroke="none">
<path d="M1150 2593 c-290 -44 -519 -149 -718 -328 -288 -260 -436 -604 -427
-995 2 -80 6 -158 10 -175 21 -100 28 -128 51 -200 61 -191 163 -355 318 -510
195 -195 396 -303 671 -362 113 -24 378 -23 495 1 493 104 869 454 1004 936 9
30 18 73 22 95 3 22 10 60 14 85 9 48 6 304 -4 355 -4 17 -11 53 -16 80 -29
143 -104 317 -195 456 -64 96 -250 282 -344 343 -155 101 -316 168 -486 202
-74 15 -335 26 -395 17z"/>
</g>
</svg>
